<svg xmlns="http://www.w3.org/2000/svg" enable-background="new 0 0 2000 2000" viewBox="0 0 2000 2000" width="550" height="550"><path fill="#c7e9f4" fill-rule="evenodd" d="M775.4 1606.2c-22.6 20.1-126.5 171.9-500.2-53C128.5 1464.8 44 1331.9 109 1174.4c88.9-215.2 143.8-251.5 86.7-460.8C162.6 592-4.2 112.1 538.5 113.7c249.1.7 281.1 249.2 734.7 53.6 754.3-325.3 843.4 1466.8 259 1465.1-241.1-.7-389-28.7-670.8-45.3-16.1-.9-51.8-2.8-68.1 8.5l-17.9 10.6z" clip-rule="evenodd" opacity=".5" class="colorc7e9f4 svgShape"></path><path fill="#ffffff" d="m1777.4 690.5 5.7 32.1 32.2 5.7-32.2 5.7-5.7 32.1-5.6-32.1-32.2-5.7 32.2-5.7zM1518.5 1187.8l5.6 32.1 32.2 5.7-32.2 5.7-5.6 32.1-5.7-32.1-32.2-5.7 32.2-5.7zM1657 1407l5.7 32.2 32.2 5.6-32.2 5.7-5.7 32.2-5.7-32.2-32.1-5.7 32.1-5.6zM418.9 1524.1l4 22.8 22.9 4-22.9 4-4 22.9-4-22.9-22.9-4 22.9-4zM424.8 217.1l4 22.9 22.8 4-22.8 4-4 22.9-4.1-22.9-22.8-4 22.8-4zM1307 217.1l4 22.9 22.9 4-22.9 4-4 22.9-4-22.9-22.9-4 22.9-4zM833.1 570.9l6.3 35.8 35.8 6.3-35.8 6.3-6.3 35.8-6.3-35.8L791 613l35.8-6.3zM259.5 1044.3l6.3 35.8 35.8 6.3-35.8 6.3-6.3 35.8-6.3-35.8-35.8-6.3 35.8-6.3z" class="colorfff svgShape"></path><ellipse cx="1000" cy="1903.3" fill="#dfe6ff" fill-rule="evenodd" clip-rule="evenodd" rx="895.5" ry="44" class="colordfe6ff svgShape"></ellipse><path fill="#4b76ba" fill-rule="evenodd" d="M546 363.8c0-5.6 4.6-10.2 10.1-10.2h887.7c5.6 0 10.2 4.6 10.2 10.2s-4.6 10.1-10.2 10.1H556.2c-5.6 0-10.2-4.6-10.2-10.1z" clip-rule="evenodd" class="color4b76ba svgShape"></path><linearGradient id="a" x1="554.482" x2="598.392" y1="416.081" y2="416.081" gradientUnits="userSpaceOnUse"><stop offset="0" stop-color="#242c62" class="stopColor242c62 svgShape"></stop><stop offset="1" stop-color="#15489d" class="stopColor15489d svgShape"></stop></linearGradient><path fill="url(#a)" fill-rule="evenodd" d="M576.4 448.1c12.1 0 22-14.4 22-32 0-17.7-9.9-32-22-32s-21.9 14.4-21.9 32 9.8 32 21.9 32z" clip-rule="evenodd"></path><path fill="#4b76ba" d="M814.1 1026.6h-13.8c0-152.8-23.8-296.4-67.1-404.3-20.9-52-45.1-92.8-71.9-121.1-27.1-28.6-55.6-43.1-84.8-43.1-29.2 0-57.7 14.5-84.8 43.1-26.9 28.3-51.1 69.1-71.9 121.1-43.3 107.9-67.1 251.5-67.1 404.3h-13.8c0-154.5 24.2-299.9 68.1-409.4 44.7-111.5 104.9-172.9 169.6-172.9 64.7 0 124.9 61.4 169.6 172.9 43.7 109.4 67.9 254.8 67.9 409.4z" class="color4b76ba svgShape"></path><linearGradient id="b" x1="319.691" x2="833.127" y1="1026.588" y2="1026.588" gradientUnits="userSpaceOnUse"><stop offset="0" stop-color="#4b76ba" class="stopColor4b76ba svgShape"></stop><stop offset="1" stop-color="#15489d" class="stopColor15489d svgShape"></stop></linearGradient><path fill="url(#b)" fill-rule="evenodd" d="M833.1 966.8H319.7c0 65.8 24.2 119.6 53.7 119.6h406c29.6 0 53.7-53.9 53.7-119.6z" clip-rule="evenodd"></path><linearGradient id="c" x1="1401.664" x2="1445.575" y1="365.817" y2="365.817" gradientUnits="userSpaceOnUse"><stop offset="0" stop-color="#242c62" class="stopColor242c62 svgShape"></stop><stop offset="1" stop-color="#15489d" class="stopColor15489d svgShape"></stop></linearGradient><path fill="url(#c)" fill-rule="evenodd" d="M1423.6 387.8c12.1 0 22-9.9 22-22s-9.9-21.9-22-21.9-21.9 9.8-21.9 21.9c0 12.1 9.8 22 21.9 22z" clip-rule="evenodd"></path><linearGradient id="d" x1="554.482" x2="598.392" y1="365.817" y2="365.817" gradientUnits="userSpaceOnUse"><stop offset="0" stop-color="#242c62" class="stopColor242c62 svgShape"></stop><stop offset="1" stop-color="#15489d" class="stopColor15489d svgShape"></stop></linearGradient><path fill="url(#d)" fill-rule="evenodd" d="M576.4 387.8c12.1 0 22-9.9 22-22s-9.9-21.9-22-21.9-21.9 9.8-21.9 21.9c0 12.1 9.8 22 21.9 22z" clip-rule="evenodd"></path><linearGradient id="e" x1="1401.664" x2="1445.575" y1="416.081" y2="416.081" gradientUnits="userSpaceOnUse"><stop offset="0" stop-color="#242c62" class="stopColor242c62 svgShape"></stop><stop offset="1" stop-color="#15489d" class="stopColor15489d svgShape"></stop></linearGradient><path fill="url(#e)" fill-rule="evenodd" d="M1423.6 448.1c12.1 0 22-14.4 22-32 0-17.7-9.9-32-22-32s-21.9 14.4-21.9 32 9.8 32 21.9 32z" clip-rule="evenodd"></path><path fill="#4b76ba" d="M1661.2 1026.6h-13.8c0-152.8-23.8-296.4-67.1-404.3-20.9-52-45.1-92.8-71.9-121.1-27.1-28.6-55.6-43.1-84.8-43.1-29.2 0-57.7 14.5-84.8 43.1-26.9 28.3-51.1 69.1-71.9 121.1-43.3 107.9-67.1 251.5-67.1 404.3H1186c0-154.5 24.2-300 68.1-409.4 44.7-111.5 104.9-172.9 169.6-172.9 64.7 0 124.9 61.4 169.6 172.9 43.8 109.4 67.9 254.8 67.9 409.4z" class="color4b76ba svgShape"></path><linearGradient id="f" x1="1166.872" x2="1680.309" y1="1026.588" y2="1026.588" gradientUnits="userSpaceOnUse"><stop offset="0" stop-color="#4b76ba" class="stopColor4b76ba svgShape"></stop><stop offset="1" stop-color="#15489d" class="stopColor15489d svgShape"></stop></linearGradient><path fill="url(#f)" fill-rule="evenodd" d="M1680.3 966.8h-513.4c0 65.8 24.2 119.6 53.7 119.6h406c29.5 0 53.7-53.9 53.7-119.6z" clip-rule="evenodd"></path><linearGradient id="g" x1="906.218" x2="1093.782" y1="672.659" y2="672.659" gradientUnits="userSpaceOnUse"><stop offset="0" stop-color="#4b76ba" class="stopColor4b76ba svgShape"></stop><stop offset="1" stop-color="#15489d" class="stopColor15489d svgShape"></stop></linearGradient><path fill="url(#g)" fill-rule="evenodd" d="m1014.6 129.3 32.3 443.4 46.9 643.3H906.2l46.9-643.3 32.3-443.4z" clip-rule="evenodd"></path><linearGradient id="h" x1="945.182" x2="1054.818" y1="363.737" y2="363.737" gradientUnits="userSpaceOnUse"><stop offset="0" stop-color="#242c62" class="stopColor242c62 svgShape"></stop><stop offset="1" stop-color="#15489d" class="stopColor15489d svgShape"></stop></linearGradient><path fill="url(#h)" fill-rule="evenodd" d="M1000 421.5c30.2 0 54.8-25.9 54.8-57.7 0-31.8-24.6-57.7-54.8-57.7-30.2 0-54.8 25.9-54.8 57.7 0 31.7 24.6 57.7 54.8 57.7z" clip-rule="evenodd"></path><linearGradient id="i" x1="920.724" x2="1079.276" y1="131.953" y2="131.953" gradientUnits="userSpaceOnUse"><stop offset="0" stop-color="#242c62" class="stopColor242c62 svgShape"></stop><stop offset="1" stop-color="#15489d" class="stopColor15489d svgShape"></stop></linearGradient><path fill="url(#i)" fill-rule="evenodd" d="m1000 52.7 39.6 39.6 39.7 39.7-39.7 39.6-39.6 39.6-39.6-39.6-39.7-39.6 39.7-39.7z" clip-rule="evenodd"></path><path fill="#15489d" fill-rule="evenodd" d="M890.1 1143.9h219.8c14.4 0 26.1 10.3 26.1 22.9 0 12.7-11.8 23-26.1 23H890.1c-14.4 0-26.2-10.3-26.2-23 0-12.6 11.8-22.9 26.2-22.9zM816.9 1190.1h366.2c12.7 0 23 10.3 23 22.9 0 12.6-10.3 23-23 23H816.9c-12.7 0-23-10.3-23-23 0-12.6 10.3-22.9 23-22.9zM750.8 1236.2h498.4c12.7 0 23 10.3 23 23s-10.3 23-23 23H750.8c-12.6 0-22.9-10.3-22.9-23 0-12.6 10.3-23 22.9-23z" clip-rule="evenodd" class="color15489d svgShape"></path><path fill="#ffffff" d="M393.9 1570.6c19.2-37.7 38.3-144.6 0-219.2h555.5c142 57.2 52.7 216.5 1 219.2H393.9z" class="colorfff svgShape"></path><path fill="#8caedb" d="M1013 1402.6H411.1c.3 1.3.5 2.8.8 4.1h603.4c-.7-1.4-1.5-2.8-2.3-4.1zM1025.8 1446.3H415.9c0 1.3 0 2.8.1 4.1h610v-.1l-.1-1.4V1448l-.1-.8V1446.3zM1006.7 1521.3H409.5l-.9 4.2h595.6c.8-1.4 1.6-2.8 2.5-4.2z" class="color8caedb svgShape"></path><linearGradient id="j" x1="4718.048" x2="5917.829" y1="1460.881" y2="1460.881" gradientTransform="matrix(-1.0139 0 0 1 6391.857 0)" gradientUnits="userSpaceOnUse"><stop offset=".005" stop-color="#1cb89d" class="stopColor1cb89d svgShape"></stop><stop offset="1" stop-color="#4fbd9d" class="stopColor4fbd9d svgShape"></stop></linearGradient><path fill="url(#j)" d="M391.8 1587.9v-17.4h554.1c33.5-1.7 81.7-61.5 80.1-120.9-.9-38.1-22.4-76-81.1-98.3H391.6v-17.5h1151.2c88.8 19.8 84.5 240 2.1 254.1H391.8z"></path><path fill="#ffffff" d="M1300.5 1588.8c24.1-90 26.2-173.7 6.6-255.8l-6.9 1.6c19.3 81 17.2 163.6-6.6 252.4l6.9 1.8zM1358.6 1588.8c24.4-89.9 26.9-173.5 7.8-255.8l-6.9 1.6c18.9 81.1 16.3 163.7-7.7 252.4l6.8 1.8z" class="colorfff svgShape"></path><path fill="#e96f89" d="M792.8 1599.6c-5.2-49.6 1.3-101.9 16.7-152.8h51.6c-15.4 58.6-6.4 110.8 1.4 160.4l-41.4-38.2-28.3 30.6z" class="colore96f89 svgShape"></path><path fill="#ffffff" d="M1457.3 1321.3c-14.5-28.8-28.9-110.6 0-167.7h-419.1c-107.1 43.8-39.8 165.7-.8 167.7h419.9z" class="colorfff svgShape"></path><path fill="#8caedb" d="M990.2 1192.8h454.1c-.2 1-.4 2.1-.6 3.2H988.5c.5-1.1 1.1-2.2 1.7-3.2zM980.5 1226.3h460.1c0 1 0 2.1-.1 3.2H980.4v-.1l.1-1.1V1227.4l.1-.6v-.6.1h-.1zM995 1283.6h450.6c.2 1.1.5 2.1.7 3.2H996.9c-.7-1.1-1.3-2.1-1.9-3.2z" class="color8caedb svgShape"></path><linearGradient id="k" x1="541.092" x2="1458.908" y1="1237.39" y2="1237.39" gradientUnits="userSpaceOnUse"><stop offset=".005" stop-color="#ee4f88" class="stopColoree4f88 svgShape"></stop><stop offset="1" stop-color="#e9708a" class="stopColore9708a svgShape"></stop></linearGradient><path fill="url(#k)" d="M1458.9 1334.6v-13.3h-418c-25.3-1.3-61.6-47-60.4-92.5.7-29.1 16.9-58.1 61.2-75.2H1459.2v-13.4H590.6c-67 15.1-63.7 183.6-1.6 194.4h869.9z"></path><path fill="#ffffff" d="M773.3 1335.3c-18.1-68.9-19.8-132.9-5-195.7l5.2 1.2c-14.6 62-12.9 125.1 5 193.1l-5.2 1.4zM729.4 1335.3c-18.4-68.7-20.3-132.7-5.9-195.7l5.2 1.2c-14.2 62.1-12.3 125.2 5.8 193.1l-5.1 1.4z" class="colorfff svgShape"></path><path fill="#62caeb" d="M1156.3 1343.5c4-37.9-.9-77.9-12.6-116.9h-39c11.6 44.8 4.8 84.7-1 122.7l31.2-29.2 21.4 23.4z" class="color62caeb svgShape"></path><g fill="#000000" class="color000 svgShape"><path fill="#ffffff" d="M1730.1 1875.7c-23.1-46-46.1-176.6 0-267.9H1061c-171 70-63.5 264.5-1.3 267.9h670.4z" class="colorfff svgShape"></path><path fill="#8caedb" d="M984.4 1670.5h725c-.4 1.6-.6 3.4-1 5.1H981.6c.9-1.7 1.8-3.5 2.8-5.1zM968.9 1724h734.6v5.1H968.8V1726.3l.1-1V1724zM992 1815.5h719.3c.4 1.8.8 3.4 1.1 5.1H995c-1-1.7-2-3.3-3-5.1z" class="color8caedb svgShape"></path><linearGradient id="l" x1="267.358" x2="1732.642" y1="1741.718" y2="1741.718" gradientUnits="userSpaceOnUse"><stop offset=".005" stop-color="#154a9a" class="stopColor154a9a svgShape"></stop><stop offset="1" stop-color="#4b76ba" class="stopColor4b76ba svgShape"></stop></linearGradient><path fill="url(#l)" d="M1732.6 1896.9v-21.2H1065.2c-40.3-2-98.4-75.1-96.5-147.7 1.1-46.5 26.9-92.9 97.7-120.2H1731.4v-21.2H344.7c-107 24.1-101.8 293.2-2.5 310.4h1390.4z"></path><path fill="#fbb445" d="M1249.7 1911.2c6.2-60.6-1.6-124.4-20.2-186.6h-62.2c18.6 71.6 7.7 135.3-1.6 195.9l49.8-46.6 34.2 37.3z" class="colorfbb445 svgShape"></path><path fill="#ffffff" d="M638 1898c-29-109.9-31.6-212.1-8-312.4l8.3 1.9c-23.3 98.9-20.7 199.8 7.9 308.3l-8.2 2.2zM568.1 1898c-29.5-109.7-32.6-211.9-9.5-312.4l8.3 1.9c-22.8 99.2-19.7 200 9.4 308.3l-8.2 2.2z" class="colorfff svgShape"></path></g><path fill="#153663" fill-rule="evenodd" d="M371.8 1889.5v-17.3l-31.1-1.8-.4 18.5c-4.2 6.9-4 17.6-3.1 26.6l85.3-2c9-23.9-33.8-16-50.7-24zM211.3 1878.4l4.8-16.6-29.4-10.3-5.4 17.7c-6 5.4-8.7 15.8-10.3 24.8l82.6 21.5c15.1-20.5-28.2-24.7-42.3-37.1z" clip-rule="evenodd" class="color153663 svgShape"></path><path fill="#fcb790" d="m138.9 1500.1 7.5 23.5 4 24.4c-3.8 5.5-6.4-7.3-9.6-11-1.6 7.1-1.7 7.3-3.4 14.5-1.9 10.2-27.1-2-25.7-9.7l13.3-26.6 13.9-15.1z" class="colorfcb790 svgShape"></path><path fill="#262b62" fill-rule="evenodd" d="m315.7 1484.7 32.4 60.5 35.6 168.4-7.2 162.6h-37.9l-13.1-158-28.6-81.2-19.6 81.1-63 153.4-37.6-10.5 39.8-148.3 4-166.4z" clip-rule="evenodd" class="color262b62 svgShape"></path><path fill="#fcb790" fill-rule="evenodd" d="m416.8 1317.2-18.2-.2-.9-16.5-6.1-12.5c-1-2.5-.5-4.7.8-6.7 8.1-12.2 18.1-32.4 22.9-30.6 4.1 1.1-7.1 18.7-10.6 28 3.1 1.8 6.2 3.6 9.3 5.3 2 2.5 2.2 4.9 1.8 7.3l-2.3 7.9 3.3 18z" clip-rule="evenodd" class="colorfcb790 svgShape"></path><path fill="#84b2fe" fill-rule="evenodd" d="M139.8 1434.4c44.2-77.4 68.8-98.7 141.5-101.8 38.2-.6 79.5 22.9 113 34 1.3-22.7.6-39.2.9-58.8l22.3-1.1c3.8 26 5.6 52.1 9.3 78.1 3.4 22.8-8.3 29.9-24.1 26.3l-63.5-14.7 8.5 148.2c-27.9 17.3-89.4 30.5-127.2 1.7l-.2-144.7-42.7 50.7-29.9 66.4-25-7.3 17.1-77z" clip-rule="evenodd" class="color84b2fe svgShape"></path><path fill="#262b62" fill-rule="evenodd" d="m279.4 1358.2-2.3 5.8-6.6 157.5 12 12.8 11.3-12.4-12.1-157.9z" clip-rule="evenodd" class="color262b62 svgShape"></path><path fill="#262b62" fill-rule="evenodd" d="m279.3 1346.6 5 5.8 4.9 5.8-4.9 5.8-5 5.7-4.9-5.7-4.9-5.8 4.9-5.8z" clip-rule="evenodd" class="color262b62 svgShape"></path><path fill="#2c7efe" fill-rule="evenodd" d="m187.1 1441.1 36-53.5c1.2 66.4 3.3 118.6 10.7 166.8-4.7-2.2-9.2-4.9-13.4-8.1l-.2-144.7-33.1 39.5zM279.2 1347.2l-19.9-17.6-10.2 7 21.3 34.6c2.5-6.7 4.9-13.5 7.4-20.2.8-2.2 2-2.2 2.9 0l7.4 20.2 21.6-34.6-10.4-7-20.1 17.6.2.1h-.2v-.1z" clip-rule="evenodd" class="color2c7efe svgShape"></path><path fill="#84b2fe" fill-rule="evenodd" d="m279.2 1344.6-19.9-14.9-10.2 5.9 21.3 29.4c2.5-5.7 4.9-11.5 7.4-17.2.8-1.9 2-1.9 2.9 0l7.4 17.2 21.6-29.4-10.4-5.9-20.1 14.9.2.1-.2-.1z" clip-rule="evenodd" class="color84b2fe svgShape"></path><path fill="#f69668" fill-rule="evenodd" d="m293.6 1283.3-36.1-1.9 3.2 49.2c4.9 4.2 10.8 16 20 17.2 5.5-1.4 14.2-12.5 16.3-15.8l-3.4-48.7z" clip-rule="evenodd" class="colorf69668 svgShape"></path><path fill="#f1ae8e" fill-rule="evenodd" d="m254.4 1253 62.3 5.7c2 20.6 1.7 61.1-.2 62.1-15.2 9.4-39.6 4.3-53.4-9.6-7.3-18.7-13.9-47-8.7-58.2z" clip-rule="evenodd" class="colorf1ae8e svgShape"></path><path fill="#1b174f" fill-rule="evenodd" d="M259.6 1261.8c-8.7 10.4-2.3 25-.4 39.5-12.6-12.5-15.6-34.5-19.4-53.2.8-8.9 11.5-8.1 17-6.1-1.8-5.5-1-13.8 9.1-15.8 38.5-4 60.1 18.5 50.8 34.8-28.4-7.8-57.4-8.5-57.1.8z" clip-rule="evenodd" class="color1b174f svgShape"></path><path fill="#1b174f" fill-rule="evenodd" d="M316.4 1320.8c3.6-9.5 2.5-14.4 1.5-24.4-.1-11-15.7 9.5-35.7 6.8-8.5-5.2-20.6-35.9-21.7-54.7l-8.3 5.1c12.4 22.8 5 55.1 19.9 64.5 13.6 9.1 39.9 13 44.3 2.7z" clip-rule="evenodd" class="color1b174f svgShape"></path><path fill="#f1ae8e" fill-rule="evenodd" d="m259.5 1282.2-.6-11.6c-1.7-6.1-8.6-10.3-10.3-3-1.5 6.4 8.5 17.9 10.9 14.6z" clip-rule="evenodd" class="colorf1ae8e svgShape"></path><path fill="#ffffff" fill-rule="evenodd" d="M309.8 1307.6c-1.7 3.8-5.6 6.8-10.3 7.2-4.5.5-8.5-1.4-10.7-4.5 4.3.3 6.2 0 10.2-.4 3.9-.4 6.8-.8 10.8-2.3z" clip-rule="evenodd" class="colorfff svgShape"></path><path fill="#0643a3" fill-rule="evenodd" d="m1729.9 1852-18.7 19.9c-15.9 28.3-64.7 9.5-43.8 38.4l47.6-2.2 9.1-8 4.1 8.5 18-.5c3.4-16.1-1.9-20.8-5.7-36.3l-10.6-19.8z" clip-rule="evenodd" class="color0643a3 svgShape"></path><path fill="#dfcffd" fill-rule="evenodd" d="m1740.7 1832.2-30.6 8 .9 31.7c9.9 0 12.2 13.6 29.7 0v-39.7z" clip-rule="evenodd" class="colordfcffd svgShape"></path><path fill="#2c7efe" fill-rule="evenodd" d="m1801.6 1852-18.7 19.9c-15.9 28.3-64.7 9.5-43.7 38.4l47.6-2.2 9-8 4.1 8.5 18-.5c3.4-16.1-1.9-20.8-5.6-36.3l-10.7-19.8z" clip-rule="evenodd" class="color2c7efe svgShape"></path><path fill="#dfcffd" fill-rule="evenodd" d="m1812.4 1832.2-30.6 8 .9 31.7c9.9 0 12.2 13.6 29.8 0v-39.7z" clip-rule="evenodd" class="colordfcffd svgShape"></path><path fill="#ffcdad" fill-rule="evenodd" d="m1580.6 1460.8-.6-20.7-14-.6c-3.7-5-7.1-14-11.1-15-7.3-1 2.8 9.7-.6 14-9.2 2.1-17.4-5.7-26-5.7-19 2.4-6.8 18.2 5.5 24 6.7 3.9 17.8 3.2 28.8 1.4l18 2.6z" clip-rule="evenodd" class="colorffcdad svgShape"></path><path fill="#f97dad" fill-rule="evenodd" d="m1707.9 1553.4-36.3 298.5c52.9 17.7 127.7 14.1 172.6-4.8l-40.4-296-35.5-69.8-60.4 72.1z" clip-rule="evenodd" class="colorf97dad svgShape"></path><path fill="#060352" fill-rule="evenodd" d="M1785.9 1294.5c1.9 42.2 18.5 21.3 26.9 55.9 5.4 21.9 1.4 18.9-22.9 25.4-5.2 1.4-38.3-.3-48.8 9.3-10.4 9.5-20.5-5.9-22.4-14.8-4.5-20.5-22.1-37.5-19-58.4 1.1-7.3-7.2-29-4.6-30.5 36.7-21.6 67.6-3.2 90.8 13.1z" clip-rule="evenodd" class="color060352 svgShape"></path><path fill="#dfcffd" fill-rule="evenodd" d="m1738.7 1426.6-7.6-71.8-70.1 80.1-88.6 4.4 1.1 22.7 102.8 5.3z" clip-rule="evenodd" class="colordfcffd svgShape"></path><path fill="#be96f8" fill-rule="evenodd" d="m1770.9 1348.5-32.5 1.1c-14.6 7-20.2 21.2-22.5 30.9-6.3 14.9-12 118.1-8.9 176.4 18.3 23.8 64.5 11.1 96.7-4.8.2-59.3 4-151.9-5.2-178.3-6.8-16.8-16.7-23.6-27.6-25.3z" clip-rule="evenodd" class="colorbe96f8 svgShape"></path><path fill="#fcb58d" fill-rule="evenodd" d="m1767 1288.6-30.1 41.1c.5 6.6.9 13.2 1.4 19.8 1.9 21.8 23.3 3.6 32.5-1.1l-3.8-59.8z" clip-rule="evenodd" class="colorfcb58d svgShape"></path><path fill="#ffcdad" fill-rule="evenodd" d="m1777 1273.6-66.6-3.2c2 23.7-15.4 80.5 30.2 70.1 33.7-7.2 34-40.6 36.4-66.9z" clip-rule="evenodd" class="colorffcdad svgShape"></path><path fill="#060352" fill-rule="evenodd" d="M1705 1295.3c-15.9-11.4-13.2-3.4-23-22.4-6-11.8-.9-27.1 38-27.1 27.2 0 50.9-20.5 52.5 8.9.6 9.8 23.1 4.8 17.9 38.3-2 13-13.3.9-15.5 22.5-1.4 12.8-8.9-22.8-9-22.8-10.7-12-45.8-20.5-55.1-8.5-.1.2-5 11.6-5.8 11.1z" clip-rule="evenodd" class="color060352 svgShape"></path><path fill="#ffffff" fill-rule="evenodd" d="M1721.1 1325.5c4 5.7 9 8.8 14 8.2 5.2-.7 9.4-5.6 11.8-12.8-4 2.6-8.7 4.4-13.8 5.1-4.1.5-8.2.3-12-.5z" clip-rule="evenodd" class="colorfff svgShape"></path><linearGradient id="m" x1="1627.443" x2="1804.1" y1="1524.715" y2="1524.715" gradientUnits="userSpaceOnUse"><stop offset="0" stop-color="#84b2fe" class="stopColor84b2fe svgShape"></stop><stop offset="1" stop-color="#2c7efe" class="stopColor2c7efe svgShape"></stop></linearGradient><path fill="url(#m)" fill-rule="evenodd" d="m1707.9 1432.7-78.8 60.1c-1.9 1.4-2.2 4.2-.8 6l89.3 117c1.4 1.9 4.1 2.2 6 .8l78.8-60.1c1.9-1.4 2.2-4.2.8-6l-89.3-117c-1.4-1.8-4.2-2.2-6-.8z" clip-rule="evenodd"></path><path fill="#0643a3" fill-rule="evenodd" d="M1659.3 1450.8c-4.6 3.5-5.7 9.8-2.9 14.6l-1.2.9c-.9.7-1.1 2.1-.4 3l5.4 7c.7 1 2.1 1.1 3.1.4l20.2-15.4c.9-.8 1.1-2.2.4-3.1l-5.3-7c-.8-.9-2.2-1.1-3.1-.4l-1.2.9c-4-3.9-10.4-4.4-15-.9zm4.8 6.3c-1.4 1.1-1.7 3.2-.6 4.6 1.1 1.4 3.1 1.7 4.6.6 1.4-1.1 1.7-3.2.6-4.6-1-1.4-3.1-1.7-4.6-.6z" clip-rule="evenodd" class="color0643a3 svgShape"></path><path fill="#ffcdad" fill-rule="evenodd" d="m1744.1 1535.6-15.4-13.8-10.1 9.8c-6.2-.8-15-4.5-18.5-2.4-5.8 4.7 9 4.7 9.7 10.1-4.8 8.1-16.2 8.7-22 14.9-11.4 15.4 8.5 17.5 21.1 12.6 7.5-2.2 14.6-10.7 21-19.8l14.2-11.4z" clip-rule="evenodd" class="colorffcdad svgShape"></path><path fill="#dfcffd" fill-rule="evenodd" d="M1813.1 1408.1c-1.9-49-45-71.4-45.5-42.9l9.4 98.4-55.8 63.8 17.7 17.3 72.5-73.2c1.9-26-.4-37.4 1.7-63.4z" clip-rule="evenodd" class="colordfcffd svgShape"></path></svg>